<svg width="147" height="18" viewBox="0 0 147 18" fill="none" xmlns="http://www.w3.org/2000/svg">
<path d="M5.67436e-05 17.0879V0.287889H3.88806V17.0879H5.67436e-05ZM7.87506 17.0879V0.287889H11.0911L21.0031 12.3839H19.4431V0.287889H23.2831V17.0879H20.0911L10.1551 4.99189H11.7151V17.0879H7.87506ZM27.2579 17.0879V0.287889H30.4739L40.3859 12.3839H38.8259V0.287889H42.6659V17.0879H39.4739L29.5379 4.99189H31.0979V17.0879H27.2579ZM54.8007 17.3759C53.4727 17.3759 52.2407 17.1599 51.1047 16.7279C49.9847 16.2959 49.0087 15.6879 48.1767 14.9039C47.3607 14.1199 46.7207 13.1999 46.2567 12.1439C45.8087 11.0879 45.5847 9.93589 45.5847 8.68789C45.5847 7.43989 45.8087 6.28789 46.2567 5.23189C46.7207 4.17589 47.3687 3.25589 48.2007 2.47189C49.0327 1.68789 50.0087 1.07989 51.1287 0.647889C52.2487 0.21589 53.4647 -0.000109673 54.7767 -0.000109673C56.1047 -0.000109673 57.3207 0.21589 58.4247 0.647889C59.5447 1.07989 60.5127 1.68789 61.3287 2.47189C62.1607 3.25589 62.8087 4.17589 63.2727 5.23189C63.7367 6.27189 63.9687 7.42389 63.9687 8.68789C63.9687 9.93589 63.7367 11.0959 63.2727 12.1679C62.8087 13.2239 62.1607 14.1439 61.3287 14.9279C60.5127 15.6959 59.5447 16.2959 58.4247 16.7279C57.3207 17.1599 56.1127 17.3759 54.8007 17.3759ZM54.7767 14.0639C55.5287 14.0639 56.2167 13.9359 56.8407 13.6799C57.4807 13.4239 58.0407 13.0559 58.5207 12.5759C59.0007 12.0959 59.3687 11.5279 59.6247 10.8719C59.8967 10.2159 60.0327 9.48789 60.0327 8.68789C60.0327 7.88789 59.8967 7.15989 59.6247 6.50389C59.3687 5.84789 59.0007 5.27989 58.5207 4.79989C58.0567 4.31989 57.5047 3.95189 56.8647 3.69589C56.2247 3.43989 55.5287 3.31189 54.7767 3.31189C54.0247 3.31189 53.3287 3.43989 52.6887 3.69589C52.0647 3.95189 51.5127 4.31989 51.0327 4.79989C50.5527 5.27989 50.1767 5.84789 49.9047 6.50389C49.6487 7.15989 49.5207 7.88789 49.5207 8.68789C49.5207 9.47189 49.6487 10.1999 49.9047 10.8719C50.1767 11.5279 50.5447 12.0959 51.0087 12.5759C51.4887 13.0559 52.0487 13.4239 52.6887 13.6799C53.3287 13.9359 54.0247 14.0639 54.7767 14.0639ZM66.8907 17.0879V0.287889H70.1067L77.2587 12.1439H75.5547L82.5867 0.287889H85.7787L85.8267 17.0879H82.1787L82.1547 5.87989H82.8267L77.2107 15.3119H75.4587L69.7227 5.87989H70.5387V17.0879H66.8907ZM87.6046 17.0879L95.0926 0.287889H98.9326L106.445 17.0879H102.365L96.2206 2.25589H97.7566L91.5886 17.0879H87.6046ZM91.3486 13.4879L92.3806 10.5359H101.021L102.077 13.4879H91.3486Z" fill="white"/>
<path d="M110.113 17.2799C109.473 17.2799 108.921 17.0639 108.457 16.6319C108.009 16.1839 107.785 15.6159 107.785 14.9279C107.785 14.2399 108.009 13.6879 108.457 13.2719C108.921 12.8399 109.473 12.6239 110.113 12.6239C110.769 12.6239 111.321 12.8399 111.769 13.2719C112.217 13.6879 112.441 14.2399 112.441 14.9279C112.441 15.6159 112.217 16.1839 111.769 16.6319C111.321 17.0639 110.769 17.2799 110.113 17.2799ZM119.368 17.0879L112.12 0.287889H116.32L122.656 15.1679H120.184L126.616 0.287889H130.48L123.208 17.0879H119.368ZM139.735 17.3759C138.439 17.3759 137.231 17.1679 136.111 16.7519C135.007 16.3199 134.047 15.7119 133.231 14.9279C132.415 14.1439 131.775 13.2239 131.311 12.1679C130.863 11.1119 130.639 9.95189 130.639 8.68789C130.639 7.42389 130.863 6.26389 131.311 5.20789C131.775 4.15189 132.415 3.23189 133.231 2.44789C134.063 1.66389 135.031 1.06389 136.135 0.647889C137.239 0.21589 138.447 -0.000109673 139.759 -0.000109673C141.215 -0.000109673 142.527 0.25589 143.695 0.76789C144.879 1.26389 145.871 1.99989 146.671 2.97589L144.175 5.27989C143.599 4.62389 142.959 4.13589 142.255 3.81589C141.551 3.47989 140.783 3.31189 139.951 3.31189C139.167 3.31189 138.447 3.43989 137.791 3.69589C137.135 3.95189 136.567 4.31989 136.087 4.79989C135.607 5.27989 135.231 5.84789 134.959 6.50389C134.703 7.15989 134.575 7.88789 134.575 8.68789C134.575 9.48789 134.703 10.2159 134.959 10.8719C135.231 11.5279 135.607 12.0959 136.087 12.5759C136.567 13.0559 137.135 13.4239 137.791 13.6799C138.447 13.9359 139.167 14.0639 139.951 14.0639C140.783 14.0639 141.551 13.9039 142.255 13.5839C142.959 13.2479 143.599 12.7439 144.175 12.0719L146.671 14.3759C145.871 15.3519 144.879 16.0959 143.695 16.6079C142.527 17.1199 141.207 17.3759 139.735 17.3759Z" fill="#00B1E9"/>
</svg>
